<?xml version="1.0" standalone="no"?>
<!DOCTYPE svg PUBLIC "-//W3C//DTD SVG 20010904//EN"
 "http://www.w3.org/TR/2001/REC-SVG-20010904/DTD/svg10.dtd">
<svg version="1.0" xmlns="http://www.w3.org/2000/svg"
 width="512.000000pt" height="512.000000pt" viewBox="0 0 512.000000 512.000000"
 preserveAspectRatio="xMidYMid meet">
<metadata>
Created by potrace 1.14, written by Peter Selinger 2001-2017
</metadata>
<g transform="translate(0.000000,512.000000) scale(0.100000,-0.100000)"
fill="#000000" stroke="none">
<path d="M868 4914 c-80 -17 -188 -60 -266 -106 -81 -47 -221 -189 -271 -274
-195 -332 -108 -737 210 -974 134 -101 301 -159 469 -164 l95 -3 141 -107 c78
-58 144 -106 148 -106 3 0 5 67 4 148 -2 144 2 172 24 172 17 0 129 83 181
135 212 209 284 501 189 765 -133 367 -541 594 -924 514z"/>
<path d="M3230 4814 c-146 -28 -286 -120 -366 -241 -79 -119 -110 -285 -79
-418 17 -73 74 -188 115 -234 16 -18 30 -37 30 -41 0 -4 -17 -20 -37 -36 -21
-16 -76 -63 -123 -104 -316 -281 -512 -548 -591 -810 -19 -64 -23 -98 -23
-235 0 -188 4 -216 44 -296 54 -106 151 -191 250 -220 25 -7 49 -16 54 -20 5
-4 -138 -7 -317 -7 l-325 1 -1 395 c-1 218 -4 399 -7 402 -6 6 -843 9 -860 3
-10 -4 -13 -140 -14 -590 l0 -63 -44 0 c-58 0 -96 -29 -96 -74 0 -47 30 -71
93 -73 29 0 174 -2 322 -2 249 -1 268 -3 245 -17 -90 -57 -86 -157 11 -268
l40 -45 -72 -193 c-39 -106 -73 -203 -76 -215 l-5 -21 -56 19 c-70 24 -108 24
-156 -1 -83 -42 -114 -137 -71 -219 21 -42 78 -82 124 -88 38 -5 40 -7 33 -32
-4 -14 -7 -57 -6 -96 1 -78 24 -139 72 -190 25 -26 28 -35 24 -85 -9 -124 51
-274 147 -370 232 -229 612 -190 791 83 43 66 78 165 82 235 l2 42 761 0 761
0 3 -46 c8 -159 127 -335 276 -408 281 -137 603 -11 716 282 29 74 35 213 13
297 -48 182 -182 318 -366 370 -101 29 -133 68 -142 180 -4 39 -9 88 -11 110
-3 22 -7 74 -10 115 -6 86 -15 199 -20 250 -2 19 -7 76 -10 125 -4 50 -8 100
-10 112 -2 13 -7 69 -10 125 -4 57 -9 110 -10 119 -2 8 -6 55 -10 105 -4 49
-9 100 -10 114 -2 14 -7 80 -10 148 l-7 122 119 0 c66 0 135 5 154 11 93 32
155 126 147 224 -6 77 -49 141 -115 176 -49 26 -60 27 -198 28 -169 2 -222
-10 -275 -62 -18 -17 -41 -50 -51 -72 l-19 -40 0 35 c0 42 -29 92 -67 117 -25
16 -63 18 -414 23 l-386 5 24 54 c33 72 51 162 47 241 -4 72 -16 110 -52 158
l-24 33 36 -6 c50 -10 79 0 98 33 14 23 25 29 53 30 91 4 206 57 268 125 50
56 94 147 111 230 8 38 17 72 20 75 4 3 45 6 92 7 78 1 88 3 105 24 25 30 24
76 -1 101 -19 19 -42 25 -82 21 -11 -1 -22 16 -38 63 -59 177 -214 320 -395
363 -31 7 -187 12 -215 7z m823 -1764 c-3 -12 -8 -19 -11 -16 -5 6 5 36 12 36
2 0 2 -9 -1 -20z m-231 -150 c3 -30 9 -84 13 -120 3 -36 8 -78 10 -95 4 -31
13 -121 20 -215 3 -30 9 -95 15 -145 5 -49 12 -124 15 -165 4 -41 8 -86 10
-100 2 -14 7 -61 10 -105 4 -44 9 -93 11 -110 6 -47 6 -188 0 -214 -23 -103
-84 -211 -162 -285 l-48 -44 -50 25 c-79 40 -124 82 -154 142 -24 50 -27 67
-26 156 0 89 9 260 19 385 2 25 7 97 11 160 3 63 7 129 8 145 5 75 -38 179
-95 232 -66 59 -101 68 -354 93 -60 6 -119 13 -130 15 -11 2 -28 4 -39 4 -15
1 -13 7 14 38 39 44 86 117 129 198 l31 61 367 -1 368 0 7 -55z m-758 -1170
c96 -373 123 -480 119 -480 -17 0 -106 63 -148 106 -86 85 -135 186 -151 313
-14 101 -9 130 31 168 20 19 48 53 62 74 14 22 27 38 29 37 1 -2 28 -100 58
-218z"/>
<path d="M206 3009 c-31 -25 -34 -66 -7 -100 19 -24 19 -24 266 -24 265 -1
276 1 296 52 10 28 -10 77 -36 87 -9 3 -124 6 -254 6 -226 0 -240 -1 -265 -21z"/>
<path d="M343 2727 c-50 -22 -48 -103 4 -126 33 -15 344 -15 377 0 30 14 47
55 35 86 -17 46 -42 52 -224 51 -93 -1 -180 -5 -192 -11z"/>
<path d="M473 2437 c-47 -24 -55 -68 -22 -111 20 -26 22 -26 145 -26 121 0
126 1 149 26 27 29 25 68 -5 99 -17 17 -35 19 -134 20 -63 1 -123 -3 -133 -8z"/>
</g>
</svg>
